<svg width="93" height="94" viewBox="0 0 93 94" fill="none" xmlns="http://www.w3.org/2000/svg">
<path d="M46.5 0.5C50.7686 0.5 54.8857 1.04492 58.8516 2.13477C62.8174 3.22461 66.5107 4.79883 69.9316 6.85742C73.3525 8.91602 76.4858 11.3379 79.3315 14.123C82.1772 16.9082 84.6143 20.0415 86.6426 23.5229C88.6709 27.0044 90.23 30.7129 91.3198 34.6484C92.4097 38.584 92.9697 42.7012 93 47C93 51.2686 92.4551 55.3857 91.3652 59.3516C90.2754 63.3174 88.7012 67.0107 86.6426 70.4316C84.584 73.8525 82.1621 76.9858 79.377 79.8315C76.5918 82.6772 73.4585 85.1143 69.9771 87.1426C66.4956 89.1709 62.7871 90.73 58.8516 91.8198C54.916 92.9097 50.7988 93.4697 46.5 93.5C42.2314 93.5 38.1143 92.9551 34.1484 91.8652C30.1826 90.7754 26.4893 89.2012 23.0684 87.1426C19.6475 85.084 16.5142 82.6621 13.6685 79.877C10.8228 77.0918 8.38574 73.9585 6.35742 70.4771C4.3291 66.9956 2.77002 63.2871 1.68018 59.3516C0.590332 55.416 0.0302734 51.2988 0 47C0 42.7314 0.544922 38.6143 1.63477 34.6484C2.72461 30.6826 4.29883 26.9893 6.35742 23.5684C8.41602 20.1475 10.8379 17.0142 13.623 14.1685C16.4082 11.3228 19.5415 8.88574 23.0229 6.85742C26.5044 4.8291 30.2129 3.27002 34.1484 2.18018C38.084 1.09033 42.2012 0.530273 46.5 0.5ZM73.8823 31.606L67.7065 25.4302L37.7812 55.3555L25.2935 42.8677L19.1177 49.0435L37.7812 67.707L73.8823 31.606Z" fill="#14BCCC"/>
</svg>
