<svg width="108" height="15" viewBox="0 0 108 15" fill="none" xmlns="http://www.w3.org/2000/svg">
<path fill-rule="evenodd" clip-rule="evenodd" d="M2.58221 12.7626H0V0H5.59083V2.35H2.57823L2.58221 12.7626ZM11.4578 0H17.4789V2.35H14.1456V4.81252H16.7278V7.16253H14.1456V10.4167H17.6942V12.7667H11.4578V0ZM28.4495 7.16253H25.9769V12.7584H23.289V0H25.9769V4.81252H28.4495V0H31.0317V12.7626H28.4495V7.16253ZM36.8621 0H42.8833V2.35H39.5499V4.81252H42.1322V7.16253H39.5499V10.4167H43.0985V12.7667H36.8621V0ZM53.529 3.69169C53.529 3.11252 53.1514 2.35 52.5627 2.35H51.3609V6.49169H52.579C53.1717 6.49169 53.5452 5.40836 53.5452 4.92503L53.529 3.69169ZM53.2042 8.75003H51.3609V12.7792H48.6731V0H53.0825C53.4882 0.00862108 53.8882 0.0996228 54.2595 0.267763C54.6308 0.435889 54.9659 0.677832 55.2458 0.9796C55.5255 1.28137 55.7441 1.637 55.8891 2.02597C56.0343 2.41494 56.1029 2.82954 56.0909 3.24584V5.26253C56.1073 6.6667 55.3357 8.75003 53.2042 8.75003ZM64.329 3.37917L63.4682 8.07921H65.1897L64.329 3.37917ZM65.6201 10.2084H63.0379L62.6075 12.7834H59.9196L62.6075 0H66.0505L68.7383 12.7626H66.0505L65.6201 10.2084ZM79.9687 12.7834H73.2857V0H75.9735V10.4167H78.3406V0H81.0284V10.4167H82.1043V15H79.9525L79.9687 12.7834ZM92.275 5.95418L89.5872 11.4375V12.7792H86.8993V0H89.5872V6.82919L92.275 1.34584V0H94.9628V12.7626H92.275V5.95418ZM105.312 2.37084H104.021C103.554 2.37084 103.16 3.00417 103.16 3.37917V4.83335C103.16 5.25002 103.501 6.17502 103.911 6.17502H105.308L105.312 2.37084ZM105.312 12.7875V8.28337H104.451L102.73 12.7626H99.8268L102.194 7.72503C102.194 7.72503 100.57 6.97919 100.57 4.70418V3.0375C100.57 1.29999 101.751 0.0166597 103.688 0.0166597H108V12.7792L105.312 12.7875Z" fill="white"/>
</svg>
