<svg width="21" height="19" viewBox="0 0 21 19" fill="none" xmlns="http://www.w3.org/2000/svg">
<path d="M2.70397 15.8624C0.967534 14.12 0.00439096 11.8575 1.49769e-05 9.51056C-0.004361 7.16361 0.950339 4.89818 2.68027 3.15051L7.08202 7.13638V11.8949L2.70397 15.8624ZM13.925 18.493V11.5607H8.22985V7.43072H20.7579C21.706 11.2572 19.9588 16.4664 13.925 18.493ZM13.925 6.41279V0.522893C15.4349 0.989415 16.8067 1.76279 17.9354 2.78375C19.0639 3.80469 19.9195 5.0461 20.4362 6.41279H13.925ZM7.87095 6.41279L3.4692 2.42692C5.41741 0.846379 7.94714 -0.0185198 10.5628 0.00166405C11.3163 -0.0128499 12.0685 0.0676389 12.7975 0.240816V6.41279H7.87095ZM3.47259 16.5583L7.87434 12.6032H12.7975V18.7751C11.1605 19.1024 9.46091 19.072 7.83941 18.6866C6.21789 18.301 4.72102 17.5715 3.47259 16.5583Z" fill="white"/>
</svg>
